<svg width="400" height="80" viewBox="0 0 400 80" fill="none" xmlns="http://www.w3.org/2000/svg">
<rect width="400" height="80" fill="#1E1E1E"/>
<rect width="400" height="80" fill="white"/>
<path d="M74.3125 43.6L72.2725 55H65.6725L69.4725 33.48H75.5125L75.0725 36.16C76.6725 34.24 78.7525 33.08 81.1925 33.08C85.6725 33.08 88.1525 36.72 87.2325 41.96L84.9525 55H78.3525L80.3925 43.4C80.8725 40.64 80.0325 39.08 78.0325 39.08C75.7925 39.08 74.8325 40.68 74.3125 43.6ZM101.467 27.84C101.467 30.28 99.2272 32.32 96.4672 32.32C94.2672 32.32 92.8272 31 92.8272 29.16C92.8272 26.72 95.1072 24.64 97.7872 24.64C100.027 24.64 101.467 25.96 101.467 27.84ZM95.8272 55H89.2272L93.0272 33.48H99.6272L95.8272 55ZM109 43.6L106.96 55H100.36L104.16 33.48H110.2L109.76 36.16C111.36 34.24 113.44 33.08 115.88 33.08C120.36 33.08 122.84 36.72 121.92 41.96L119.64 55H113.04L115.08 43.4C115.56 40.64 114.72 39.08 112.72 39.08C110.48 39.08 109.52 40.68 109 43.6ZM134.315 55.4C128.875 55.4 124.395 51.96 124.395 45.96C124.395 38.52 129.435 33.08 136.195 33.08C143.115 33.08 146.315 38.84 145.195 45.92H131.275C131.395 48.44 132.635 49.76 134.835 49.76C136.395 49.76 137.395 49.04 137.995 47.64H144.795C142.995 53.12 139.035 55.4 134.315 55.4ZM136.155 38.28C133.875 38.28 132.515 39.72 131.835 41.76H139.115C139.075 39.92 138.115 38.28 136.155 38.28ZM155.087 45L153.327 55H146.727L150.527 33.48H156.567L155.887 37.36C157.967 34.8 160.447 33.36 164.847 33.36L163.607 40.24C158.687 39.48 155.847 40.6 155.087 45ZM183.001 47.92C183.001 52.12 179.521 55.4 173.241 55.4C167.561 55.4 163.601 52.24 163.601 47.36H169.961C169.961 49.08 171.241 50.52 173.681 50.52C175.161 50.52 176.521 49.92 176.521 48.76C176.521 47.72 175.841 47.36 174.601 47.08L170.641 46.2C167.761 45.56 165.681 43.96 165.681 40.32C165.681 35.76 169.961 33.08 175.241 33.08C180.681 33.08 184.201 36.12 184.201 40.88H177.881C177.881 39.12 176.601 37.96 174.881 37.96C173.321 37.96 172.041 38.56 172.041 39.72C172.041 40.72 172.841 41.16 173.921 41.4L177.241 42.16C180.681 42.96 183.001 44.48 183.001 47.92ZM195.284 55.4C189.564 55.4 185.564 51.64 185.564 46.28C185.564 39 191.124 33.08 198.044 33.08C203.684 33.08 207.684 36.8 207.684 42.16C207.684 49.48 202.124 55.4 195.284 55.4ZM195.964 49.44C198.684 49.44 200.764 46.56 200.764 42.84C200.764 40.52 199.404 39.04 197.284 39.04C194.564 39.04 192.484 41.96 192.484 45.68C192.484 48 193.884 49.44 195.964 49.44ZM216.693 55H210.133L212.893 39.24H209.013L210.053 33.48H213.933L214.093 32.68C214.933 28.4 217.253 25.8 222.293 25.8C223.653 25.8 224.973 26.08 225.813 26.52L224.933 31.76C224.533 31.56 223.613 31.4 222.933 31.4C221.653 31.4 220.733 31.92 220.613 32.84L220.533 33.48H225.653L224.653 39.24H219.493L216.693 55ZM240.517 48.48L239.517 54.48C238.157 55.12 236.517 55.4 234.997 55.4C230.157 55.4 227.757 51.88 228.717 46.48L229.997 39.24H226.117L227.157 33.48H231.037L232.117 27.16H238.717L237.637 33.48H243.357L242.317 39.24H236.597L235.317 46.44C234.997 48.28 235.757 49.2 237.477 49.2C238.517 49.2 239.757 48.92 240.517 48.48ZM259.707 55L258.707 42.08L253.267 55H246.427L244.347 33.48H250.747L251.547 45.92L256.747 33.48H263.387L264.147 45.92L269.227 33.48H275.707L266.067 55H259.707ZM285.881 55L286.281 52.84C284.881 54.56 282.881 55.4 280.161 55.4C276.241 55.4 273.641 53.08 273.641 49.6C273.641 45.04 277.761 42.12 284.201 42.12C285.401 42.12 286.481 42.2 287.161 42.36L287.361 41.36C287.721 39.52 286.681 38.32 284.721 38.32C282.761 38.32 281.681 39.28 281.321 41.36H275.361C275.761 36.24 279.601 33.08 285.441 33.08C291.121 33.08 294.441 36.64 293.561 41.72L291.201 55H285.881ZM280.001 48.76C280.001 49.92 281.081 50.8 282.521 50.8C284.521 50.8 285.961 49.64 286.281 47.8L286.521 46.4C285.641 46.2 284.761 46.12 283.921 46.12C281.401 46.12 280.001 47.08 280.001 48.76ZM303.876 45L302.116 55H295.516L299.316 33.48H305.356L304.676 37.36C306.756 34.8 309.236 33.36 313.636 33.36L312.396 40.24C307.476 39.48 304.636 40.6 303.876 45ZM322.635 55.4C317.195 55.4 312.715 51.96 312.715 45.96C312.715 38.52 317.755 33.08 324.515 33.08C331.435 33.08 334.635 38.84 333.515 45.92H319.595C319.715 48.44 320.955 49.76 323.155 49.76C324.715 49.76 325.715 49.04 326.315 47.64H333.115C331.315 53.12 327.355 55.4 322.635 55.4ZM324.475 38.28C322.195 38.28 320.835 39.72 320.155 41.76H327.435C327.395 39.92 326.435 38.28 324.475 38.28Z" fill="#046A38"/>
</svg>
